<svg width="16" height="16" viewBox="0 0 16 16" fill="none" xmlns="http://www.w3.org/2000/svg">
<path d="M0.695652 0C0.278261 0 0 0.278261 0 0.695652C0 0.904348 0.0695653 1.04348 0.208696 1.18261L7.02609 8L0.208696 14.8174C-0.0695651 15.0957 -0.0695651 15.513 0.208696 15.7913C0.486957 16.0696 0.904348 16.0696 1.18261 15.7913L8 8.97391L14.8174 15.7913C15.0957 16.0696 15.513 16.0696 15.7913 15.7913C16.0696 15.513 16.0696 15.0957 15.7913 14.8174L8.97391 8L15.7913 1.18261C16.0696 0.904348 16.0696 0.486957 15.7913 0.208696C15.6522 0.0695653 15.4435 0 15.3043 0C15.0957 0 14.9565 0.0695653 14.8174 0.208696L8 7.02609L1.18261 0.208696C1.04348 0.0695653 0.904348 0 0.695652 0Z" fill="black"/>
</svg>
