<svg width="25" height="25" viewBox="0 0 25 25" fill="none" xmlns="http://www.w3.org/2000/svg">
<path d="M23.7759 23.0145L17.7995 17.09C21.3854 13.1404 21.0216 7.00805 17.0719 3.47416C13.1223 -0.059732 6.98996 0.200113 3.45607 4.20172C-0.0778233 8.20333 0.23399 14.2837 4.18363 17.8176C7.87343 21.0916 13.4341 21.0916 17.0719 17.8176L23.0484 23.794C23.2562 24.0019 23.5681 24.0019 23.7759 23.794C23.9838 23.5861 23.9838 23.2224 23.7759 23.0145C23.7759 23.0665 23.7759 23.0665 23.7759 23.0145ZM2.10487 10.6978C2.10487 5.96867 5.95058 2.12296 10.6798 2.12296C15.4089 2.12296 19.2546 5.96867 19.2546 10.6978C19.2546 15.427 15.4089 19.2727 10.6798 19.2727C5.95058 19.2208 2.10487 15.427 2.10487 10.6978Z" fill="black"/>
<path d="M23.7759 23.0145L17.7995 17.09C21.3854 13.1404 21.0216 7.00805 17.0719 3.47416C13.1223 -0.0597319 6.98996 0.200113 3.45607 4.20172C-0.0778233 8.20333 0.23399 14.2837 4.18363 17.8176C7.87343 21.0916 13.4341 21.0916 17.0719 17.8176L23.0484 23.794C23.2562 24.0019 23.5681 24.0019 23.7759 23.794C23.9838 23.5861 23.9838 23.2224 23.7759 23.0145ZM23.7759 23.0145C23.7759 23.0665 23.7759 23.0665 23.7759 23.0145ZM2.10487 10.6978C2.10487 5.96867 5.95058 2.12296 10.6798 2.12296C15.4089 2.12296 19.2546 5.96867 19.2546 10.6978C19.2546 15.427 15.4089 19.2727 10.6798 19.2727C5.95058 19.2208 2.10487 15.427 2.10487 10.6978Z" stroke="black" stroke-width="0.4"/>
</svg>
