<svg width="16" height="13" viewBox="0 0 16 13" fill="none" xmlns="http://www.w3.org/2000/svg">
<path d="M4.78157 2.23057C5.70456 1.53832 6.80062 1.15374 7.95436 1.15374C10.8387 1.15374 13.2039 3.49968 13.2039 6.40327C13.2039 6.65324 13.1847 6.90322 13.1462 7.1532L12.6078 6.59556C12.377 6.36481 12.0117 6.36481 11.8002 6.59556C11.5694 6.8263 11.5694 7.19166 11.8002 7.40317L13.6846 9.32608L15.7806 7.4224C16.0113 7.21088 16.0306 6.84553 15.819 6.61479C15.6075 6.38404 15.2422 6.36481 15.0114 6.57633L14.3384 7.19166C14.3769 6.92245 14.3961 6.67247 14.3961 6.40327C14.3961 2.88435 11.531 0 7.99282 0C6.56987 0 5.24307 0.442268 4.12778 1.30757C3.87781 1.49986 3.82012 1.86522 4.01241 2.11519C4.16624 2.36517 4.53159 2.42286 4.78157 2.23057Z" fill="black"/>
<path d="M0.570365 6.30715C0.704968 6.30715 0.839571 6.24946 0.954945 6.15332L1.60873 5.55722C1.57027 5.82642 1.55104 6.11486 1.55104 6.40329C1.55104 9.9222 4.41617 12.8066 7.95431 12.8066C9.39649 12.8066 10.7617 12.3258 11.8963 11.4413C12.1462 11.249 12.1847 10.8837 11.9924 10.6337C11.8001 10.3837 11.4348 10.3452 11.1848 10.5375C10.2618 11.2682 9.12728 11.6528 7.95431 11.6528C5.06996 11.6528 2.70479 9.30688 2.70479 6.40329C2.70479 6.13409 2.72402 5.84565 2.76247 5.57644L3.30089 6.13409C3.53164 6.36483 3.89699 6.36483 4.10851 6.13409C4.33925 5.90334 4.33925 5.53799 4.10851 5.32647L2.22406 3.40356L0.185784 5.30724C-0.0449642 5.51876 -0.0641932 5.88411 0.147326 6.11486C0.2627 6.24946 0.416532 6.30715 0.570365 6.30715Z" fill="black"/>
</svg>
